<?xml version="1.0" encoding="utf-8"?>
<svg viewBox="0 0 500 500" xmlns="http://www.w3.org/2000/svg">
  <g style="filter: none; pointer-events: none;" transform="matrix(1, 0, 0, 1, 2.842170943040401e-14, 0)">
    <path d="M 60.536 238.569 C 62.175 238.569 63.77 238.127 65.166 237.281 L 196.219 158.643 L 291.007 201.727 C 292.422 202.376 293.98 202.637 295.529 202.502 C 297.078 202.367 298.565 201.835 299.844 200.953 L 425.673 114.262 L 421.169 136.637 C 420.7 138.979 421.187 141.412 422.511 143.402 C 423.835 145.393 425.889 146.771 428.231 147.24 C 428.825 147.357 429.429 147.411 430.032 147.411 C 432.113 147.411 434.122 146.69 435.725 145.375 C 437.338 144.069 438.437 142.24 438.851 140.204 L 447.679 96.067 C 448.165 93.725 447.688 91.293 446.372 89.302 C 445.057 87.311 443.004 85.915 440.662 85.438 L 396.524 76.61 C 394.191 76.133 391.75 76.601 389.759 77.925 C 387.768 79.24 386.372 81.294 385.895 83.636 C 385.417 85.978 385.895 88.41 387.21 90.41 C 388.525 92.401 390.588 93.788 392.921 94.265 L 416.206 98.931 L 293.836 183.216 L 199.381 140.295 C 198.057 139.691 196.597 139.421 195.138 139.502 C 193.688 139.583 192.265 140.024 191.013 140.772 L 55.897 221.841 C 54.212 222.859 52.906 224.4 52.177 226.228 C 51.447 228.057 51.339 230.075 51.861 231.966 C 52.393 233.867 53.519 235.542 55.086 236.731 C 56.653 237.92 58.572 238.569 60.536 238.569 Z" style="transform-box: fill-box; transform-origin: 50% 50%; fill: rgb(97, 210, 112);"/>
    <path d="M 438.86 391.7 L 438.86 193.53 C 438.86 188.756 436.968 184.171 433.591 180.793 C 430.213 177.415 425.628 175.515 420.845 175.515 L 375.806 175.515 C 371.032 175.515 366.447 177.415 363.069 180.793 C 359.691 184.171 357.791 188.756 357.791 193.53 L 357.791 391.7 L 339.775 391.7 L 339.775 256.584 C 339.775 251.81 337.883 247.225 334.506 243.847 C 331.128 240.469 326.543 238.569 321.76 238.569 L 276.721 238.569 C 271.947 238.569 267.362 240.469 263.984 243.847 C 260.606 247.225 258.706 251.81 258.706 256.584 L 258.706 391.7 L 240.69 391.7 L 240.69 229.561 C 240.69 224.787 238.799 220.202 235.421 216.824 C 232.043 213.446 227.458 211.546 222.675 211.546 L 177.636 211.546 C 172.862 211.546 168.277 213.446 164.899 216.824 C 161.521 220.202 159.621 224.787 159.621 229.561 L 159.621 391.7 L 141.605 391.7 L 141.605 283.607 C 141.605 278.833 139.714 274.248 136.336 270.87 C 132.958 267.493 128.373 265.592 123.59 265.592 L 78.551 265.592 C 73.777 265.592 69.192 267.493 65.814 270.87 C 62.436 274.248 60.536 278.833 60.536 283.607 L 60.536 391.7 C 58.149 391.7 55.861 392.655 54.167 394.339 C 52.483 396.033 51.528 398.321 51.528 400.708 C 51.528 403.095 52.483 405.392 54.167 407.076 C 55.861 408.77 58.149 409.716 60.536 409.716 L 438.86 409.716 C 441.256 409.716 443.544 408.77 445.237 407.076 C 446.922 405.392 447.868 403.095 447.868 400.708 C 447.868 398.321 446.922 396.033 445.237 394.339 C 443.544 392.655 441.256 391.7 438.86 391.7 Z M 375.806 193.53 L 420.845 193.53 L 420.845 391.7 L 375.806 391.7 L 375.806 193.53 Z M 276.721 256.584 L 321.76 256.584 L 321.76 391.7 L 276.721 391.7 L 276.721 256.584 Z M 177.636 229.561 L 222.675 229.561 L 222.675 391.7 L 177.636 391.7 L 177.636 229.561 Z M 78.551 283.607 L 123.59 283.607 L 123.59 391.7 L 78.551 391.7 L 78.551 283.607 Z" style="transform-box: fill-box; transform-origin: 50% 50%; fill: rgb(97, 210, 112);"/>
  </g>
</svg>